<svg width="311" height="134" xmlns="http://www.w3.org/2000/svg" xmlns:xlink="http://www.w3.org/1999/xlink" overflow="hidden"><defs><clipPath id="clip0"><rect x="470" y="299" width="311" height="134"/></clipPath><linearGradient x1="174.196" y1="140.296" x2="308.421" y2="140.296" gradientUnits="userSpaceOnUse" spreadMethod="pad" id="fill1"><stop offset="0" stop-color="#3C9101"/><stop offset="0" stop-color="#00FF10"/><stop offset="0.216028" stop-color="#01913A"/><stop offset="1" stop-color="#01913A"/></linearGradient></defs><g clip-path="url(#clip0)" transform="translate(-470 -299)"><path d="M241.308 73.1841C204.244 73.1841 174.196 103.231 174.196 140.296 174.196 177.361 204.243 207.408 241.308 207.408 267.844 207.406 291.886 191.77 302.649 167.515L295.882 167.515C285.108 189.161 262.581 202.415 238.427 201.323 204.723 199.732 178.689 171.119 180.28 137.414 181.872 103.71 210.485 77.677 244.189 79.2685 266.282 80.3427 286.068 93.274 295.921 113.077L302.649 113.077C291.886 88.8227 267.844 73.1862 241.308 73.1841Z" fill="url(#fill1)" transform="matrix(1.00002 0 0 1 295.801 225.816)"/><text fill="#2B0000" font-family="Times New Roman,Times New Roman_MSFontService,sans-serif" font-weight="400" font-size="63" transform="matrix(0.71659 0 0 0.716578 489.54 380)">PMK<tspan font-size="41" x="189.65" y="-8.37313">МИ</tspan><tspan font-size="41" x="254.65" y="-8.37313">K</tspan><tspan font-size="41" x="282.65" y="-8.37313">ОЛАЇВ</tspan><tspan fill="#808080" font-family="Verdana,Verdana_MSFontService,sans-serif" font-size="14" x="138.244" y="65.5896">ефективні безпечні та якісні рішення</tspan></text><path d="M144.374-310.096C144.374-301.888 141.866-295.234 138.772-295.234 135.677-295.234 133.169-301.888 133.169-310.096 133.169-318.304 135.677-324.958 138.772-324.958 141.866-324.958 144.374-318.304 144.374-310.096Z" fill="#01913A" transform="matrix(6.12334e-17 1 -1.00002 6.12323e-17 295.801 225.816)"/></g></svg>